ISO-10303-21;
HEADER;
FILE_DESCRIPTION (( 'STEP AP203' ),
    '1' );
FILE_NAME ('连杆.STEP',
    '2026-09-15T03:01:41',
    ( '' ),
    ( '' ),
    'SwSTEP 2.0',
    'SolidWorks 2021',
    '' );
FILE_SCHEMA (( 'CONFIG_CONTROL_DESIGN' ));
ENDSEC;

DATA;
#1 = DIRECTION ( 'NONE',  ( 1.000000000000000000, 0.000000000000000000, 0.000000000000000000 ) ) ;
#2 = CIRCLE ( 'NONE', #341, 1.750000000000000000 ) ;
#3 = DIRECTION ( 'NONE',  ( 1.000000000000000000, 0.000000000000000000, 0.000000000000000000 ) ) ;
#4 = DIRECTION ( 'NONE',  ( -1.000000000000000000, 0.000000000000000000, 0.000000000000000000 ) ) ;
#5 = DATE_AND_TIME ( #306, #175 ) ;
#6 = DIRECTION ( 'NONE',  ( 1.000000000000000000, 0.000000000000000000, 0.000000000000000000 ) ) ;
#7 = ADVANCED_FACE ( 'NONE', ( #91 ), #55, .T. ) ;
#8 = PERSON_AND_ORGANIZATION ( #155, #195 ) ;
#9 = AXIS2_PLACEMENT_3D ( 'NONE', #31, #355, #299 ) ;
#10 = ORIENTED_EDGE ( 'NONE', *, *, #113, .F. ) ;
#11 = LINE ( 'NONE', #252, #312 ) ;
#12 = AXIS2_PLACEMENT_3D ( 'NONE', #101, #300, #364 ) ;
#13 = ORIENTED_EDGE ( 'NONE', *, *, #113, .T. ) ;
#14 = FACE_BOUND ( 'NONE', #221, .T. ) ;
#15 = ORIENTED_EDGE ( 'NONE', *, *, #384, .F. ) ;
#16 = APPROVAL ( #74, '未指定' ) ;
#17 = APPROVAL_DATE_TIME ( #412, #340 ) ;
#18 = CARTESIAN_POINT ( 'NONE',  ( 31.00000000000000000, 0.000000000000000000, 5.000000000000000000 ) ) ;
#19 = VERTEX_POINT ( 'NONE', #59 ) ;
#20 = FACE_OUTER_BOUND ( 'NONE', #381, .T. ) ;
#21 = AXIS2_PLACEMENT_3D ( 'NONE', #169, #235, #266 ) ;
#22 = ORIENTED_EDGE ( 'NONE', *, *, #198, .T. ) ;
#23 = ORIENTED_EDGE ( 'NONE', *, *, #393, .T. ) ;
#24 = CARTESIAN_POINT ( 'NONE',  ( 0.000000000000000000, -3.500000000000000444, 5.000000000000000000 ) ) ;
#25 = CYLINDRICAL_SURFACE ( 'NONE', #330, 3.500000000000000444 ) ;
#26 = DIRECTION ( 'NONE',  ( 0.000000000000000000, 0.000000000000000000, 1.000000000000000000 ) ) ;
#27 = CARTESIAN_POINT ( 'NONE',  ( 0.000000000000000000, 0.000000000000000000, 0.000000000000000000 ) ) ;
#28 = CC_DESIGN_PERSON_AND_ORGANIZATION_ASSIGNMENT ( #170, #71, ( #308 ) ) ;
#29 = CARTESIAN_POINT ( 'NONE',  ( 31.00000000000000000, 0.000000000000000000, 0.000000000000000000 ) ) ;
#30 = CYLINDRICAL_SURFACE ( 'NONE', #36, 3.499999999999999556 ) ;
#31 = CARTESIAN_POINT ( 'NONE',  ( 0.000000000000000000, 0.000000000000000000, 0.000000000000000000 ) ) ;
#32 = CIRCLE ( 'NONE', #12, 1.750000000000000000 ) ;
#33 = FACE_OUTER_BOUND ( 'NONE', #124, .T. ) ;
#34 = EDGE_CURVE ( 'NONE', #116, #276, #32, .T. ) ;
#35 = VERTEX_POINT ( 'NONE', #65 ) ;
#36 = AXIS2_PLACEMENT_3D ( 'NONE', #363, #334, #66 ) ;
#37 = LOCAL_TIME ( 11, 1, 41.00000000000000000, #258 ) ;
#38 = APPROVAL_STATUS ( 'not_yet_approved' ) ;
#39 = COORDINATED_UNIVERSAL_TIME_OFFSET ( 8, 0, .AHEAD. ) ;
#40 = DIRECTION ( 'NONE',  ( 0.000000000000000000, 0.000000000000000000, 1.000000000000000000 ) ) ;
#41 = VERTEX_POINT ( 'NONE', #326 ) ;
#42 = CIRCLE ( 'NONE', #62, 3.500000000000000444 ) ;
#43 = ORIENTED_EDGE ( 'NONE', *, *, #279, .T. ) ;
#44 = EDGE_CURVE ( 'NONE', #346, #190, #106, .T. ) ;
#45 = CARTESIAN_POINT ( 'NONE',  ( 29.24999999999999645, 0.000000000000000000, 5.000000000000000000 ) ) ;
#46 = APPLICATION_CONTEXT ( 'configuration controlled 3d designs of mechanical parts and assemblies' ) ;
#47 = ORIENTED_EDGE ( 'NONE', *, *, #182, .T. ) ;
#48 = CARTESIAN_POINT ( 'NONE',  ( 0.000000000000000000, 0.000000000000000000, 0.000000000000000000 ) ) ;
#49 = ORIENTED_EDGE ( 'NONE', *, *, #420, .T. ) ;
#50 =( NAMED_UNIT ( * ) SI_UNIT ( $, .STERADIAN. ) SOLID_ANGLE_UNIT ( ) );
#51 = ADVANCED_FACE ( 'NONE', ( #162 ), #136, .F. ) ;
#52 = CYLINDRICAL_SURFACE ( 'NONE', #156, 1.750000000000000000 ) ;
#53 = VECTOR ( 'NONE', #232, 1000.000000000000000 ) ;
#54 = LOCAL_TIME ( 11, 1, 41.00000000000000000, #88 ) ;
#55 = CYLINDRICAL_SURFACE ( 'NONE', #296, 3.500000000000000444 ) ;
#56 = DATE_TIME_ROLE ( 'classification_date' ) ;
#57 = DIRECTION ( 'NONE',  ( -0.000000000000000000, -0.000000000000000000, -1.000000000000000000 ) ) ;
#58 = LINE ( 'NONE', #82, #135 ) ;
#59 = CARTESIAN_POINT ( 'NONE',  ( 29.24999999999999645, 0.000000000000000000, 5.000000000000000000 ) ) ;
#60 = PERSON_AND_ORGANIZATION ( #155, #195 ) ;
#61 = CARTESIAN_POINT ( 'NONE',  ( 0.000000000000000000, 0.000000000000000000, 5.000000000000000000 ) ) ;
#62 = AXIS2_PLACEMENT_3D ( 'NONE', #27, #209, #6 ) ;
#63 = PERSON_AND_ORGANIZATION_ROLE ( 'creator' ) ;
#64 = ADVANCED_FACE ( 'NONE', ( #333 ), #390, .F. ) ;
#65 = CARTESIAN_POINT ( 'NONE',  ( 31.00000000000000000, 3.500000000000000444, 5.000000000000000000 ) ) ;
#66 = DIRECTION ( 'NONE',  ( -1.000000000000000000, 0.000000000000000000, 0.000000000000000000 ) ) ;
#67 = DIRECTION ( 'NONE',  ( 0.000000000000000000, 0.000000000000000000, 1.000000000000000000 ) ) ;
#68 = EDGE_CURVE ( 'NONE', #116, #197, #200, .T. ) ;
#69 = VECTOR ( 'NONE', #391, 1000.000000000000000 ) ;
#70 = CC_DESIGN_SECURITY_CLASSIFICATION ( #308, ( #369 ) ) ;
#71 = PERSON_AND_ORGANIZATION_ROLE ( 'classification_officer' ) ;
#72 = ORIENTED_EDGE ( 'NONE', *, *, #399, .F. ) ;
#73 = ORIENTED_EDGE ( 'NONE', *, *, #401, .F. ) ;
#74 = APPROVAL_STATUS ( 'not_yet_approved' ) ;
#75 = ORIENTED_EDGE ( 'NONE', *, *, #329, .T. ) ;
#76 = CC_DESIGN_APPROVAL ( #340, ( #253 ) ) ;
#77 = MANIFOLD_SOLID_BREP ( '凸台-拉伸1', #172 ) ;
#78 = FACE_BOUND ( 'NONE', #352, .T. ) ;
#79 = DIRECTION ( 'NONE',  ( 0.000000000000000000, 0.000000000000000000, 1.000000000000000000 ) ) ;
#80 = ADVANCED_FACE ( 'NONE', ( #267 ), #25, .T. ) ;
#81 = ORIENTED_EDGE ( 'NONE', *, *, #350, .T. ) ;
#82 = CARTESIAN_POINT ( 'NONE',  ( 0.000000000000000000, -3.500000000000000444, 5.000000000000000000 ) ) ;
#83 = CIRCLE ( 'NONE', #371, 1.750000000000000000 ) ;
#84 = CARTESIAN_POINT ( 'NONE',  ( 31.00000000000000000, 0.000000000000000000, 5.000000000000000000 ) ) ;
#85 = ORIENTED_EDGE ( 'NONE', *, *, #191, .F. ) ;
#86 = PLANE ( 'NONE',  #360 ) ;
#87 = ORIENTED_EDGE ( 'NONE', *, *, #68, .T. ) ;
#88 = COORDINATED_UNIVERSAL_TIME_OFFSET ( 8, 0, .AHEAD. ) ;
#89 =( NAMED_UNIT ( * ) PLANE_ANGLE_UNIT ( ) SI_UNIT ( $, .RADIAN. ) );
#90 = DIRECTION ( 'NONE',  ( 0.000000000000000000, 0.000000000000000000, 1.000000000000000000 ) ) ;
#91 = FACE_OUTER_BOUND ( 'NONE', #246, .T. ) ;
#92 = AXIS2_PLACEMENT_3D ( 'NONE', #104, #67, #95 ) ;
#93 = CARTESIAN_POINT ( 'NONE',  ( 0.000000000000000000, 0.000000000000000000, 5.000000000000000000 ) ) ;
#94 = APPLICATION_PROTOCOL_DEFINITION ( 'international standard', 'config_control_design', 1994, #309 ) ;
#95 = DIRECTION ( 'NONE',  ( 1.000000000000000000, 0.000000000000000000, 0.000000000000000000 ) ) ;
#96 = CC_DESIGN_DATE_AND_TIME_ASSIGNMENT ( #99, #105, ( #253 ) ) ;
#97 = DIRECTION ( 'NONE',  ( 0.000000000000000000, -0.000000000000000000, 1.000000000000000000 ) ) ;
#98 = APPROVAL_DATE_TIME ( #274, #16 ) ;
#99 = DATE_AND_TIME ( #325, #54 ) ;
#100 = VECTOR ( 'NONE', #413, 1000.000000000000000 ) ;
#101 = CARTESIAN_POINT ( 'NONE',  ( 0.000000000000000000, 0.000000000000000000, 5.000000000000000000 ) ) ;
#102 = ADVANCED_BREP_SHAPE_REPRESENTATION ( '连杆', ( #77, #272 ), #228 ) ;
#103 = DIRECTION ( 'NONE',  ( -0.000000000000000000, -0.000000000000000000, -1.000000000000000000 ) ) ;
#104 = CARTESIAN_POINT ( 'NONE',  ( 0.000000000000000000, 0.000000000000000000, 5.000000000000000000 ) ) ;
#105 = DATE_TIME_ROLE ( 'creation_date' ) ;
#106 = CIRCLE ( 'NONE', #21, 1.750000000000001554 ) ;
#107 = DIRECTION ( 'NONE',  ( 1.000000000000000000, 0.000000000000000000, 0.000000000000000000 ) ) ;
#108 = EDGE_LOOP ( 'NONE', ( #283, #184, #149, #243 ) ) ;
#109 = CC_DESIGN_PERSON_AND_ORGANIZATION_ASSIGNMENT ( #203, #208, ( #369 ) ) ;
#110 = ORIENTED_EDGE ( 'NONE', *, *, #410, .T. ) ;
#111 = AXIS2_PLACEMENT_3D ( 'NONE', #165, #202, #362 ) ;
#112 = LINE ( 'NONE', #45, #163 ) ;
#113 = EDGE_CURVE ( 'NONE', #400, #41, #164, .T. ) ;
#114 = FACE_BOUND ( 'NONE', #128, .T. ) ;
#115 = PERSON_AND_ORGANIZATION_ROLE ( 'design_owner' ) ;
#116 = VERTEX_POINT ( 'NONE', #421 ) ;
#117 = PLANE ( 'NONE',  #147 ) ;
#118 = ORIENTED_EDGE ( 'NONE', *, *, #356, .T. ) ;
#119 = AXIS2_PLACEMENT_3D ( 'NONE', #395, #366, #210 ) ;
#120 = VECTOR ( 'NONE', #103, 1000.000000000000000 ) ;
#121 = DIRECTION ( 'NONE',  ( 1.000000000000000000, 0.000000000000000000, -0.000000000000000000 ) ) ;
#122 = DIRECTION ( 'NONE',  ( 1.000000000000000000, 0.000000000000000000, 0.000000000000000000 ) ) ;
#123 = APPROVAL ( #129, '未指定' ) ;
#124 = EDGE_LOOP ( 'NONE', ( #85, #110, #324, #263 ) ) ;
#125 = PERSON_AND_ORGANIZATION_ROLE ( 'creator' ) ;
#126 = CARTESIAN_POINT ( 'NONE',  ( 31.00000000000000000, 3.500000000000000444, 0.000000000000000000 ) ) ;
#127 = VERTEX_POINT ( 'NONE', #302 ) ;
#128 = EDGE_LOOP ( 'NONE', ( #375, #223 ) ) ;
#129 = APPROVAL_STATUS ( 'not_yet_approved' ) ;
#130 = CIRCLE ( 'NONE', #92, 3.500000000000000444 ) ;
#131 = DIRECTION ( 'NONE',  ( -0.000000000000000000, -0.000000000000000000, -1.000000000000000000 ) ) ;
#132 = LINE ( 'NONE', #229, #271 ) ;
#133 = COORDINATED_UNIVERSAL_TIME_OFFSET ( 8, 0, .AHEAD. ) ;
#134 = CYLINDRICAL_SURFACE ( 'NONE', #173, 1.750000000000000000 ) ;
#135 = VECTOR ( 'NONE', #262, 1000.000000000000000 ) ;
#136 = PLANE ( 'NONE',  #227 ) ;
#137 = EDGE_CURVE ( 'NONE', #190, #346, #219, .T. ) ;
#138 = LINE ( 'NONE', #224, #100 ) ;
#139 = CARTESIAN_POINT ( 'NONE',  ( 31.00000000000000000, -3.500000000000000444, 0.000000000000000000 ) ) ;
#140 = ORIENTED_EDGE ( 'NONE', *, *, #34, .F. ) ;
#141 = ORIENTED_EDGE ( 'NONE', *, *, #350, .F. ) ;
#142 = VECTOR ( 'NONE', #248, 1000.000000000000000 ) ;
#143 = CC_DESIGN_PERSON_AND_ORGANIZATION_ASSIGNMENT ( #60, #63, ( #369 ) ) ;
#144 = DIRECTION ( 'NONE',  ( -0.000000000000000000, -0.000000000000000000, -1.000000000000000000 ) ) ;
#145 = ORIENTED_EDGE ( 'NONE', *, *, #303, .F. ) ;
#146 = ADVANCED_FACE ( 'NONE', ( #396 ), #134, .F. ) ;
#147 = AXIS2_PLACEMENT_3D ( 'NONE', #376, #79, #351 ) ;
#148 = DIRECTION ( 'NONE',  ( -0.000000000000000000, -0.000000000000000000, -1.000000000000000000 ) ) ;
#149 = ORIENTED_EDGE ( 'NONE', *, *, #384, .T. ) ;
#150 = DIRECTION ( 'NONE',  ( 0.000000000000000000, 0.000000000000000000, 1.000000000000000000 ) ) ;
#151 = ORIENTED_EDGE ( 'NONE', *, *, #182, .F. ) ;
#152 = PERSON_AND_ORGANIZATION ( #155, #195 ) ;
#153 = ORIENTED_EDGE ( 'NONE', *, *, #314, .F. ) ;
#154 = PERSON_AND_ORGANIZATION ( #155, #195 ) ;
#155 = PERSON ( '未指定', '未指定', '未指定', ('未指定'), ('未指定'), ('未指定') ) ;
#156 = AXIS2_PLACEMENT_3D ( 'NONE', #256, #148, #343 ) ;
#157 = CALENDAR_DATE ( 2026, 15, 9 ) ;
#158 = CARTESIAN_POINT ( 'NONE',  ( -1.750000000000000000, 0.000000000000000000, 5.000000000000000000 ) ) ;
#159 = EDGE_LOOP ( 'NONE', ( #81, #73, #349, #289 ) ) ;
#160 = VERTEX_POINT ( 'NONE', #233 ) ;
#161 = CARTESIAN_POINT ( 'NONE',  ( 31.00000000000000000, -3.500000000000000444, 5.000000000000000000 ) ) ;
#162 = FACE_OUTER_BOUND ( 'NONE', #159, .T. ) ;
#163 = VECTOR ( 'NONE', #318, 1000.000000000000000 ) ;
#164 = LINE ( 'NONE', #273, #53 ) ;
#165 = CARTESIAN_POINT ( 'NONE',  ( 0.000000000000000000, 3.500000000000000444, 5.000000000000000000 ) ) ;
#166 = SECURITY_CLASSIFICATION_LEVEL ( 'unclassified' ) ;
#167 = CYLINDRICAL_SURFACE ( 'NONE', #119, 1.750000000000005107 ) ;
#168 = CC_DESIGN_PERSON_AND_ORGANIZATION_ASSIGNMENT ( #216, #115, ( #378 ) ) ;
#169 = CARTESIAN_POINT ( 'NONE',  ( 31.00000000000000000, 0.000000000000000000, 0.000000000000000000 ) ) ;
#170 = PERSON_AND_ORGANIZATION ( #155, #195 ) ;
#171 = CARTESIAN_POINT ( 'NONE',  ( 31.00000000000000000, 0.000000000000000000, 0.000000000000000000 ) ) ;
#172 = CLOSED_SHELL ( 'NONE', ( #261, #236, #7, #247, #284, #80, #51, #389, #64, #146, #373 ) ) ;
#173 = AXIS2_PLACEMENT_3D ( 'NONE', #93, #131, #297 ) ;
#174 = DIRECTION ( 'NONE',  ( -0.000000000000000000, -0.000000000000000000, -1.000000000000000000 ) ) ;
#175 = LOCAL_TIME ( 11, 1, 41.00000000000000000, #239 ) ;
#176 = ORIENTED_EDGE ( 'NONE', *, *, #68, .F. ) ;
#177 = VERTEX_POINT ( 'NONE', #139 ) ;
#178 = CC_DESIGN_PERSON_AND_ORGANIZATION_ASSIGNMENT ( #152, #125, ( #253 ) ) ;
#179 = CIRCLE ( 'NONE', #242, 3.500000000000000444 ) ;
#180 = CALENDAR_DATE ( 2026, 15, 9 ) ;
#181 = ORIENTED_EDGE ( 'NONE', *, *, #329, .F. ) ;
#182 = EDGE_CURVE ( 'NONE', #217, #415, #130, .T. ) ;
#183 = ORIENTED_EDGE ( 'NONE', *, *, #198, .F. ) ;
#184 = ORIENTED_EDGE ( 'NONE', *, *, #310, .F. ) ;
#185 = CIRCLE ( 'NONE', #422, 3.500000000000003109 ) ;
#186 = LOCAL_TIME ( 11, 1, 41.00000000000000000, #39 ) ;
#187 = DIRECTION ( 'NONE',  ( 0.000000000000000000, 0.000000000000000000, 1.000000000000000000 ) ) ;
#188 = ORIENTED_EDGE ( 'NONE', *, *, #44, .F. ) ;
#189 = CYLINDRICAL_SURFACE ( 'NONE', #388, 1.750000000000005107 ) ;
#190 = VERTEX_POINT ( 'NONE', #238 ) ;
#191 = EDGE_CURVE ( 'NONE', #160, #190, #132, .T. ) ;
#192 = DIRECTION ( 'NONE',  ( 1.000000000000000000, 0.000000000000000000, 0.000000000000000000 ) ) ;
#193 = MECHANICAL_CONTEXT ( 'NONE', #309, 'mechanical' ) ;
#194 = ORIENTED_EDGE ( 'NONE', *, *, #303, .T. ) ;
#195 = ORGANIZATION ( '未指定', '未指定', '' ) ;
#196 = DIRECTION ( 'NONE',  ( -0.000000000000000000, -0.000000000000000000, -1.000000000000000000 ) ) ;
#197 = VERTEX_POINT ( 'NONE', #357 ) ;
#198 = EDGE_CURVE ( 'NONE', #35, #254, #275, .T. ) ;
#199 = CARTESIAN_POINT ( 'NONE',  ( 0.000000000000000000, 0.000000000000000000, 5.000000000000000000 ) ) ;
#200 = LINE ( 'NONE', #331, #398 ) ;
#201 = CIRCLE ( 'NONE', #255, 1.750000000000000000 ) ;
#202 = DIRECTION ( 'NONE',  ( 0.000000000000000000, -1.000000000000000000, 0.000000000000000000 ) ) ;
#203 = PERSON_AND_ORGANIZATION ( #155, #195 ) ;
#204 = LINE ( 'NONE', #417, #380 ) ;
#205 = CC_DESIGN_DATE_AND_TIME_ASSIGNMENT ( #5, #56, ( #308 ) ) ;
#206 = DIRECTION ( 'NONE',  ( -1.000000000000000000, 0.000000000000000000, 0.000000000000000000 ) ) ;
#207 = DIRECTION ( 'NONE',  ( -0.000000000000000000, -0.000000000000000000, -1.000000000000000000 ) ) ;
#208 = PERSON_AND_ORGANIZATION_ROLE ( 'design_supplier' ) ;
#209 = DIRECTION ( 'NONE',  ( 0.000000000000000000, 0.000000000000000000, 1.000000000000000000 ) ) ;
#210 = DIRECTION ( 'NONE',  ( -1.000000000000000000, 0.000000000000000000, 0.000000000000000000 ) ) ;
#211 = DESIGN_CONTEXT ( 'detailed design', #46, 'design' ) ;
#212 = EDGE_CURVE ( 'NONE', #276, #116, #2, .T. ) ;
#213 = CIRCLE ( 'NONE', #322, 1.750000000000001554 ) ;
#214 = EDGE_CURVE ( 'NONE', #41, #257, #345, .T. ) ;
#215 = LINE ( 'NONE', #403, #277 ) ;
#216 = PERSON_AND_ORGANIZATION ( #155, #195 ) ;
#217 = VERTEX_POINT ( 'NONE', #424 ) ;
#218 = EDGE_LOOP ( 'NONE', ( #75, #321 ) ) ;
#219 = CIRCLE ( 'NONE', #367, 1.750000000000001554 ) ;
#220 = CARTESIAN_POINT ( 'NONE',  ( 0.000000000000000000, 0.000000000000000000, 5.000000000000000000 ) ) ;
#221 = EDGE_LOOP ( 'NONE', ( #281, #140 ) ) ;
#222 = DIRECTION ( 'NONE',  ( 0.000000000000000000, 0.000000000000000000, 1.000000000000000000 ) ) ;
#223 = ORIENTED_EDGE ( 'NONE', *, *, #410, .F. ) ;
#224 = CARTESIAN_POINT ( 'NONE',  ( -1.750000000000000000, 0.000000000000000000, 5.000000000000000000 ) ) ;
#225 = CARTESIAN_POINT ( 'NONE',  ( 0.000000000000000000, -3.500000000000000444, 5.000000000000000000 ) ) ;
#226 = ORIENTED_EDGE ( 'NONE', *, *, #191, .T. ) ;
#227 = AXIS2_PLACEMENT_3D ( 'NONE', #24, #269, #97 ) ;
#228 =( GEOMETRIC_REPRESENTATION_CONTEXT ( 3 ) GLOBAL_UNCERTAINTY_ASSIGNED_CONTEXT ( ( #244 ) ) GLOBAL_UNIT_ASSIGNED_CONTEXT ( ( #285, #89, #50 ) ) REPRESENTATION_CONTEXT ( 'NONE', 'WORKASPACE' ) );
#229 = CARTESIAN_POINT ( 'NONE',  ( 32.75000000000000000, 2.143131898507872488E-16, 5.000000000000000000 ) ) ;
#230 = APPROVAL_ROLE ( '' ) ;
#231 = CARTESIAN_POINT ( 'NONE',  ( 0.000000000000000000, 0.000000000000000000, 0.000000000000000000 ) ) ;
#232 = DIRECTION ( 'NONE',  ( -1.000000000000000000, -0.000000000000000000, -0.000000000000000000 ) ) ;
#233 = CARTESIAN_POINT ( 'NONE',  ( 32.75000000000000000, 2.143131898507874953E-16, 5.000000000000000000 ) ) ;
#234 = CIRCLE ( 'NONE', #290, 3.500000000000003109 ) ;
#235 = DIRECTION ( 'NONE',  ( 0.000000000000000000, 0.000000000000000000, 1.000000000000000000 ) ) ;
#236 = ADVANCED_FACE ( 'NONE', ( #280 ), #52, .F. ) ;
#237 = FACE_OUTER_BOUND ( 'NONE', #407, .T. ) ;
#238 = CARTESIAN_POINT ( 'NONE',  ( 32.75000000000000000, 2.143131898507874953E-16, 0.000000000000000000 ) ) ;
#239 = COORDINATED_UNIVERSAL_TIME_OFFSET ( 8, 0, .AHEAD. ) ;
#240 = DATE_AND_TIME ( #268, #339 ) ;
#241 = EDGE_CURVE ( 'NONE', #19, #160, #338, .T. ) ;
#242 = AXIS2_PLACEMENT_3D ( 'NONE', #220, #40, #348 ) ;
#243 = ORIENTED_EDGE ( 'NONE', *, *, #214, .T. ) ;
#244 = UNCERTAINTY_MEASURE_WITH_UNIT (LENGTH_MEASURE( 1.000000000000000082E-05 ), #285, 'distance_accuracy_value', 'NONE');
#245 = ORIENTED_EDGE ( 'NONE', *, *, #212, .T. ) ;
#246 = EDGE_LOOP ( 'NONE', ( #151, #43, #118, #307 ) ) ;
#247 = ADVANCED_FACE ( 'NONE', ( #14, #409, #114 ), #86, .T. ) ;
#248 = DIRECTION ( 'NONE',  ( -0.000000000000000000, -0.000000000000000000, -1.000000000000000000 ) ) ;
#249 = ORIENTED_EDGE ( 'NONE', *, *, #34, .T. ) ;
#250 = FACE_BOUND ( 'NONE', #218, .T. ) ;
#251 = ORIENTED_EDGE ( 'NONE', *, *, #356, .F. ) ;
#252 = CARTESIAN_POINT ( 'NONE',  ( 31.00000000000000000, 3.500000000000000444, 5.000000000000000000 ) ) ;
#253 = PRODUCT_DEFINITION ( '未知', '', #369, #211 ) ;
#254 = VERTEX_POINT ( 'NONE', #382 ) ;
#255 = AXIS2_PLACEMENT_3D ( 'NONE', #365, #270, #107 ) ;
#256 = CARTESIAN_POINT ( 'NONE',  ( 0.000000000000000000, 0.000000000000000000, 5.000000000000000000 ) ) ;
#257 = VERTEX_POINT ( 'NONE', #404 ) ;
#258 = COORDINATED_UNIVERSAL_TIME_OFFSET ( 8, 0, .AHEAD. ) ;
#259 = DIRECTION ( 'NONE',  ( 1.000000000000000000, 0.000000000000000000, 0.000000000000000000 ) ) ;
#260 = ORIENTED_EDGE ( 'NONE', *, *, #214, .F. ) ;
#261 = ADVANCED_FACE ( 'NONE', ( #20 ), #189, .F. ) ;
#262 = DIRECTION ( 'NONE',  ( 1.000000000000000000, 0.000000000000000000, 0.000000000000000000 ) ) ;
#263 = ORIENTED_EDGE ( 'NONE', *, *, #137, .F. ) ;
#264 = AXIS2_PLACEMENT_3D ( 'NONE', #18, #222, #291 ) ;
#265 = APPROVAL_PERSON_ORGANIZATION ( #154, #123, #230 ) ;
#266 = DIRECTION ( 'NONE',  ( 1.000000000000000000, 0.000000000000000000, 0.000000000000000000 ) ) ;
#267 = FACE_OUTER_BOUND ( 'NONE', #108, .T. ) ;
#268 = CALENDAR_DATE ( 2026, 15, 9 ) ;
#269 = DIRECTION ( 'NONE',  ( 0.000000000000000000, 1.000000000000000000, 0.000000000000000000 ) ) ;
#270 = DIRECTION ( 'NONE',  ( 0.000000000000000000, 0.000000000000000000, 1.000000000000000000 ) ) ;
#271 = VECTOR ( 'NONE', #207, 1000.000000000000000 ) ;
#272 = AXIS2_PLACEMENT_3D ( 'NONE', #231, #305, #122 ) ;
#273 = CARTESIAN_POINT ( 'NONE',  ( 0.000000000000000000, 3.500000000000000444, 0.000000000000000000 ) ) ;
#274 = DATE_AND_TIME ( #180, #186 ) ;
#275 = LINE ( 'NONE', #423, #69 ) ;
#276 = VERTEX_POINT ( 'NONE', #158 ) ;
#277 = VECTOR ( 'NONE', #353, 1000.000000000000000 ) ;
#278 = EDGE_LOOP ( 'NONE', ( #13, #15, #183, #311 ) ) ;
#279 = EDGE_CURVE ( 'NONE', #217, #257, #215, .T. ) ;
#280 = FACE_OUTER_BOUND ( 'NONE', #354, .T. ) ;
#281 = ORIENTED_EDGE ( 'NONE', *, *, #212, .F. ) ;
#282 = DIRECTION ( 'NONE',  ( 0.000000000000000000, 0.000000000000000000, 1.000000000000000000 ) ) ;
#283 = ORIENTED_EDGE ( 'NONE', *, *, #279, .F. ) ;
#284 = ADVANCED_FACE ( 'NONE', ( #406, #250, #78 ), #117, .F. ) ;
#285 =( LENGTH_UNIT ( ) NAMED_UNIT ( * ) SI_UNIT ( .MILLI., .METRE. ) );
#286 = CARTESIAN_POINT ( 'NONE',  ( 31.00000000000000000, 0.000000000000000000, 5.000000000000000000 ) ) ;
#287 = ORIENTED_EDGE ( 'NONE', *, *, #370, .F. ) ;
#288 = CARTESIAN_POINT ( 'NONE',  ( 0.000000000000000000, 0.000000000000000000, 5.000000000000000000 ) ) ;
#289 = ORIENTED_EDGE ( 'NONE', *, *, #335, .T. ) ;
#290 = AXIS2_PLACEMENT_3D ( 'NONE', #171, #301, #3 ) ;
#291 = DIRECTION ( 'NONE',  ( 1.000000000000000000, 0.000000000000000000, 0.000000000000000000 ) ) ;
#292 = ORIENTED_EDGE ( 'NONE', *, *, #137, .T. ) ;
#293 = DIRECTION ( 'NONE',  ( -0.000000000000000000, -0.000000000000000000, -1.000000000000000000 ) ) ;
#294 = ORIENTED_EDGE ( 'NONE', *, *, #241, .T. ) ;
#295 = CARTESIAN_POINT ( 'NONE',  ( 0.000000000000000000, -3.500000000000000444, 0.000000000000000000 ) ) ;
#296 = AXIS2_PLACEMENT_3D ( 'NONE', #199, #328, #206 ) ;
#297 = DIRECTION ( 'NONE',  ( -1.000000000000000000, 0.000000000000000000, 0.000000000000000000 ) ) ;
#298 = EDGE_CURVE ( 'NONE', #35, #400, #11, .T. ) ;
#299 = DIRECTION ( 'NONE',  ( 1.000000000000000000, 0.000000000000000000, 0.000000000000000000 ) ) ;
#300 = DIRECTION ( 'NONE',  ( 0.000000000000000000, 0.000000000000000000, 1.000000000000000000 ) ) ;
#301 = DIRECTION ( 'NONE',  ( 0.000000000000000000, 0.000000000000000000, 1.000000000000000000 ) ) ;
#302 = CARTESIAN_POINT ( 'NONE',  ( -1.750000000000000000, 0.000000000000000000, 0.000000000000000000 ) ) ;
#303 = EDGE_CURVE ( 'NONE', #316, #35, #185, .T. ) ;
#304 = PERSON_AND_ORGANIZATION ( #155, #195 ) ;
#305 = DIRECTION ( 'NONE',  ( 0.000000000000000000, 0.000000000000000000, 1.000000000000000000 ) ) ;
#306 = CALENDAR_DATE ( 2026, 15, 9 ) ;
#307 = ORIENTED_EDGE ( 'NONE', *, *, #335, .F. ) ;
#308 = SECURITY_CLASSIFICATION ( '', '', #166 ) ;
#309 = APPLICATION_CONTEXT ( 'configuration controlled 3d designs of mechanical parts and assemblies' ) ;
#310 = EDGE_CURVE ( 'NONE', #254, #217, #179, .T. ) ;
#311 = ORIENTED_EDGE ( 'NONE', *, *, #298, .T. ) ;
#312 = VECTOR ( 'NONE', #144, 1000.000000000000000 ) ;
#313 = ORIENTED_EDGE ( 'NONE', *, *, #393, .F. ) ;
#314 = EDGE_CURVE ( 'NONE', #19, #346, #112, .T. ) ;
#315 = PRODUCT_DEFINITION_SHAPE ( 'NONE', 'NONE',  #253 ) ;
#316 = VERTEX_POINT ( 'NONE', #414 ) ;
#317 = APPROVAL_ROLE ( '' ) ;
#318 = DIRECTION ( 'NONE',  ( -0.000000000000000000, -0.000000000000000000, -1.000000000000000000 ) ) ;
#319 = ORIENTED_EDGE ( 'NONE', *, *, #298, .F. ) ;
#320 = PRODUCT_RELATED_PRODUCT_CATEGORY ( 'detail', '', ( #378 ) ) ;
#321 = ORIENTED_EDGE ( 'NONE', *, *, #370, .T. ) ;
#322 = AXIS2_PLACEMENT_3D ( 'NONE', #379, #150, #408 ) ;
#323 = APPROVAL_PERSON_ORGANIZATION ( #304, #16, #342 ) ;
#324 = ORIENTED_EDGE ( 'NONE', *, *, #314, .T. ) ;
#325 = CALENDAR_DATE ( 2026, 15, 9 ) ;
#326 = CARTESIAN_POINT ( 'NONE',  ( 0.000000000000000000, 3.500000000000000444, 0.000000000000000000 ) ) ;
#327 = LINE ( 'NONE', #161, #394 ) ;
#328 = DIRECTION ( 'NONE',  ( -0.000000000000000000, -0.000000000000000000, -1.000000000000000000 ) ) ;
#329 = EDGE_CURVE ( 'NONE', #127, #197, #83, .T. ) ;
#330 = AXIS2_PLACEMENT_3D ( 'NONE', #336, #57, #4 ) ;
#331 = CARTESIAN_POINT ( 'NONE',  ( 1.750000000000000000, 2.143131898507868297E-16, 5.000000000000000000 ) ) ;
#332 = DIRECTION ( 'NONE',  ( 1.000000000000000000, 0.000000000000000000, 0.000000000000000000 ) ) ;
#333 = FACE_OUTER_BOUND ( 'NONE', #278, .T. ) ;
#334 = DIRECTION ( 'NONE',  ( -0.000000000000000000, -0.000000000000000000, -1.000000000000000000 ) ) ;
#335 = EDGE_CURVE ( 'NONE', #415, #418, #374, .T. ) ;
#336 = CARTESIAN_POINT ( 'NONE',  ( 0.000000000000000000, 0.000000000000000000, 5.000000000000000000 ) ) ;
#337 = CARTESIAN_POINT ( 'NONE',  ( 0.000000000000000000, 3.500000000000000444, 5.000000000000000000 ) ) ;
#338 = CIRCLE ( 'NONE', #264, 1.750000000000001554 ) ;
#339 = LOCAL_TIME ( 11, 1, 41.00000000000000000, #133 ) ;
#340 = APPROVAL ( #38, '未指定' ) ;
#341 = AXIS2_PLACEMENT_3D ( 'NONE', #61, #26, #392 ) ;
#342 = APPROVAL_ROLE ( '' ) ;
#343 = DIRECTION ( 'NONE',  ( -1.000000000000000000, 0.000000000000000000, 0.000000000000000000 ) ) ;
#344 = ORIENTED_EDGE ( 'NONE', *, *, #401, .T. ) ;
#345 = CIRCLE ( 'NONE', #9, 3.500000000000000444 ) ;
#346 = VERTEX_POINT ( 'NONE', #359 ) ;
#347 = CC_DESIGN_APPROVAL ( #16, ( #369 ) ) ;
#348 = DIRECTION ( 'NONE',  ( 1.000000000000000000, 0.000000000000000000, 0.000000000000000000 ) ) ;
#349 = ORIENTED_EDGE ( 'NONE', *, *, #420, .F. ) ;
#350 = EDGE_CURVE ( 'NONE', #418, #177, #204, .T. ) ;
#351 = DIRECTION ( 'NONE',  ( 1.000000000000000000, 0.000000000000000000, -0.000000000000000000 ) ) ;
#352 = EDGE_LOOP ( 'NONE', ( #383, #292 ) ) ;
#353 = DIRECTION ( 'NONE',  ( -0.000000000000000000, -0.000000000000000000, -1.000000000000000000 ) ) ;
#354 = EDGE_LOOP ( 'NONE', ( #245, #87, #181, #72 ) ) ;
#355 = DIRECTION ( 'NONE',  ( 0.000000000000000000, 0.000000000000000000, 1.000000000000000000 ) ) ;
#356 = EDGE_CURVE ( 'NONE', #257, #418, #42, .T. ) ;
#357 = CARTESIAN_POINT ( 'NONE',  ( 1.750000000000000000, 2.143131898507868297E-16, 0.000000000000000000 ) ) ;
#358 = DIRECTION ( 'NONE',  ( 0.000000000000000000, 0.000000000000000000, 1.000000000000000000 ) ) ;
#359 = CARTESIAN_POINT ( 'NONE',  ( 29.24999999999999645, 0.000000000000000000, 0.000000000000000000 ) ) ;
#360 = AXIS2_PLACEMENT_3D ( 'NONE', #288, #282, #121 ) ;
#361 = APPROVAL_PERSON_ORGANIZATION ( #8, #340, #317 ) ;
#362 = DIRECTION ( 'NONE',  ( 0.000000000000000000, -0.000000000000000000, -1.000000000000000000 ) ) ;
#363 = CARTESIAN_POINT ( 'NONE',  ( 31.00000000000000000, 0.000000000000000000, 5.000000000000000000 ) ) ;
#364 = DIRECTION ( 'NONE',  ( 1.000000000000000000, 0.000000000000000000, 0.000000000000000000 ) ) ;
#365 = CARTESIAN_POINT ( 'NONE',  ( 0.000000000000000000, 0.000000000000000000, 0.000000000000000000 ) ) ;
#366 = DIRECTION ( 'NONE',  ( -0.000000000000000000, -0.000000000000000000, -1.000000000000000000 ) ) ;
#367 = AXIS2_PLACEMENT_3D ( 'NONE', #29, #358, #1 ) ;
#368 = APPROVAL_DATE_TIME ( #240, #123 ) ;
#369 = PRODUCT_DEFINITION_FORMATION_WITH_SPECIFIED_SOURCE ( '任何', '', #378, .NOT_KNOWN. ) ;
#370 = EDGE_CURVE ( 'NONE', #197, #127, #201, .T. ) ;
#371 = AXIS2_PLACEMENT_3D ( 'NONE', #48, #90, #192 ) ;
#372 = CC_DESIGN_APPROVAL ( #123, ( #308 ) ) ;
#373 = ADVANCED_FACE ( 'NONE', ( #33 ), #167, .F. ) ;
#374 = LINE ( 'NONE', #225, #142 ) ;
#375 = ORIENTED_EDGE ( 'NONE', *, *, #241, .F. ) ;
#376 = CARTESIAN_POINT ( 'NONE',  ( 0.000000000000000000, 0.000000000000000000, 0.000000000000000000 ) ) ;
#377 = ORIENTED_EDGE ( 'NONE', *, *, #310, .T. ) ;
#378 = PRODUCT ( '连杆', '连杆', '', ( #193 ) ) ;
#379 = CARTESIAN_POINT ( 'NONE',  ( 31.00000000000000000, 0.000000000000000000, 5.000000000000000000 ) ) ;
#380 = VECTOR ( 'NONE', #332, 1000.000000000000000 ) ;
#381 = EDGE_LOOP ( 'NONE', ( #294, #226, #188, #153 ) ) ;
#382 = CARTESIAN_POINT ( 'NONE',  ( 0.000000000000000000, 3.500000000000000444, 5.000000000000000000 ) ) ;
#383 = ORIENTED_EDGE ( 'NONE', *, *, #44, .T. ) ;
#384 = EDGE_CURVE ( 'NONE', #254, #41, #397, .T. ) ;
#385 = DIRECTION ( 'NONE',  ( -1.000000000000000000, 0.000000000000000000, 0.000000000000000000 ) ) ;
#386 = ORIENTED_EDGE ( 'NONE', *, *, #399, .T. ) ;
#387 = EDGE_LOOP ( 'NONE', ( #377, #47, #49, #194, #22 ) ) ;
#388 = AXIS2_PLACEMENT_3D ( 'NONE', #286, #196, #385 ) ;
#389 = ADVANCED_FACE ( 'NONE', ( #237 ), #30, .T. ) ;
#390 = PLANE ( 'NONE',  #111 ) ;
#391 = DIRECTION ( 'NONE',  ( -1.000000000000000000, -0.000000000000000000, -0.000000000000000000 ) ) ;
#392 = DIRECTION ( 'NONE',  ( 1.000000000000000000, 0.000000000000000000, 0.000000000000000000 ) ) ;
#393 = EDGE_CURVE ( 'NONE', #177, #400, #234, .T. ) ;
#394 = VECTOR ( 'NONE', #293, 1000.000000000000000 ) ;
#395 = CARTESIAN_POINT ( 'NONE',  ( 31.00000000000000000, 0.000000000000000000, 5.000000000000000000 ) ) ;
#396 = FACE_OUTER_BOUND ( 'NONE', #411, .T. ) ;
#397 = LINE ( 'NONE', #337, #120 ) ;
#398 = VECTOR ( 'NONE', #174, 1000.000000000000000 ) ;
#399 = EDGE_CURVE ( 'NONE', #276, #127, #138, .T. ) ;
#400 = VERTEX_POINT ( 'NONE', #126 ) ;
#401 = EDGE_CURVE ( 'NONE', #316, #177, #327, .T. ) ;
#402 = APPLICATION_PROTOCOL_DEFINITION ( 'international standard', 'config_control_design', 1994, #46 ) ;
#403 = CARTESIAN_POINT ( 'NONE',  ( -3.500000000000000444, 0.000000000000000000, 5.000000000000000000 ) ) ;
#404 = CARTESIAN_POINT ( 'NONE',  ( -3.500000000000000444, 0.000000000000000000, 0.000000000000000000 ) ) ;
#405 = EDGE_LOOP ( 'NONE', ( #260, #10, #313, #141, #251 ) ) ;
#406 = FACE_OUTER_BOUND ( 'NONE', #405, .T. ) ;
#407 = EDGE_LOOP ( 'NONE', ( #23, #319, #145, #344 ) ) ;
#408 = DIRECTION ( 'NONE',  ( 1.000000000000000000, 0.000000000000000000, 0.000000000000000000 ) ) ;
#409 = FACE_OUTER_BOUND ( 'NONE', #387, .T. ) ;
#410 = EDGE_CURVE ( 'NONE', #160, #19, #213, .T. ) ;
#411 = EDGE_LOOP ( 'NONE', ( #176, #249, #386, #287 ) ) ;
#412 = DATE_AND_TIME ( #157, #37 ) ;
#413 = DIRECTION ( 'NONE',  ( -0.000000000000000000, -0.000000000000000000, -1.000000000000000000 ) ) ;
#414 = CARTESIAN_POINT ( 'NONE',  ( 31.00000000000000000, -3.500000000000000444, 5.000000000000000000 ) ) ;
#415 = VERTEX_POINT ( 'NONE', #416 ) ;
#416 = CARTESIAN_POINT ( 'NONE',  ( 0.000000000000000000, -3.500000000000000444, 5.000000000000000000 ) ) ;
#417 = CARTESIAN_POINT ( 'NONE',  ( 0.000000000000000000, -3.500000000000000444, 0.000000000000000000 ) ) ;
#418 = VERTEX_POINT ( 'NONE', #295 ) ;
#419 = SHAPE_DEFINITION_REPRESENTATION ( #315, #102 ) ;
#420 = EDGE_CURVE ( 'NONE', #415, #316, #58, .T. ) ;
#421 = CARTESIAN_POINT ( 'NONE',  ( 1.750000000000000000, 2.143131898507868297E-16, 5.000000000000000000 ) ) ;
#422 = AXIS2_PLACEMENT_3D ( 'NONE', #84, #187, #259 ) ;
#423 = CARTESIAN_POINT ( 'NONE',  ( 0.000000000000000000, 3.500000000000000444, 5.000000000000000000 ) ) ;
#424 = CARTESIAN_POINT ( 'NONE',  ( -3.500000000000000444, 0.000000000000000000, 5.000000000000000000 ) ) ;
ENDSEC;
END-ISO-10303-21;
